<svg width="14" height="14" viewBox="0 0 14 14" fill="none" xmlns="http://www.w3.org/2000/svg">
<path d="M9.65316 4.3468C9.91351 4.60714 9.91351 5.02925 9.65316 5.2896L7.94274 7.00002L9.65316 8.71043C9.91351 8.97078 9.91351 9.39289 9.65316 9.65324C9.39281 9.91359 8.9707 9.91359 8.71035 9.65324L6.99993 7.94283L5.28952 9.65324C5.02917 9.91359 4.60706 9.91359 4.34671 9.65324C4.08636 9.39289 4.08636 8.97078 4.34671 8.71043L6.05713 7.00002L4.34671 5.2896C4.08636 5.02925 4.08636 4.60714 4.34671 4.3468C4.60706 4.08645 5.02917 4.08645 5.28952 4.3468L6.99993 6.05721L8.71035 4.3468C8.9707 4.08645 9.39281 4.08645 9.65316 4.3468Z" fill="#27272A"/>
<path fill-rule="evenodd" clip-rule="evenodd" d="M6.99992 0.333336C3.31802 0.333336 0.333252 3.3181 0.333252 7C0.333252 10.6819 3.31802 13.6667 6.99992 13.6667C10.6818 13.6667 13.6666 10.6819 13.6666 7C13.6666 3.3181 10.6818 0.333336 6.99992 0.333336ZM1.66659 7C1.66659 4.05448 4.0544 1.66667 6.99992 1.66667C9.94544 1.66667 12.3333 4.05448 12.3333 7C12.3333 9.94552 9.94544 12.3333 6.99992 12.3333C4.0544 12.3333 1.66659 9.94552 1.66659 7Z" fill="#27272A"/>
</svg>
