<svg width="14" height="14" viewBox="0 0 14 14" fill="none" xmlns="http://www.w3.org/2000/svg">
<path d="M2.6665 8.33334C3.21879 8.33334 3.6665 7.88562 3.6665 7.33334C3.6665 6.78105 3.21879 6.33334 2.6665 6.33334C2.11422 6.33334 1.6665 6.78105 1.6665 7.33334C1.6665 7.88562 2.11422 8.33334 2.6665 8.33334Z" fill="#27272A"/>
<path d="M6.99984 8.33334C7.55212 8.33334 7.99984 7.88562 7.99984 7.33334C7.99984 6.78105 7.55212 6.33334 6.99984 6.33334C6.44755 6.33334 5.99984 6.78105 5.99984 7.33334C5.99984 7.88562 6.44755 8.33334 6.99984 8.33334Z" fill="#27272A"/>
<path d="M12.3332 7.33334C12.3332 7.88562 11.8855 8.33334 11.3332 8.33334C10.7809 8.33334 10.3332 7.88562 10.3332 7.33334C10.3332 6.78105 10.7809 6.33334 11.3332 6.33334C11.8855 6.33334 12.3332 6.78105 12.3332 7.33334Z" fill="#27272A"/>
</svg>
