<svg width="20" height="18" viewBox="0 0 20 18" fill="none" xmlns="http://www.w3.org/2000/svg">
<path fill-rule="evenodd" clip-rule="evenodd" d="M2.61786 0.452329C2.80261 0.170079 3.11721 0 3.45455 0H16.5455C16.8828 0 17.1974 0.170079 17.3821 0.452329L19.8367 4.20221C19.9428 4.3643 19.9995 4.55371 20 4.74744C20.0018 5.50255 19.7247 6.22408 19.2326 6.79619C18.7422 7.36644 18.069 7.7543 17.331 7.91509C17.2214 7.93897 17.1109 7.95773 17 7.97138V17C17 17.5523 16.5523 18 16 18H4C3.44772 18 3 17.5523 3 17V7.97138C2.88909 7.95773 2.77863 7.93897 2.66902 7.91509C1.93105 7.75431 1.25783 7.36644 0.767389 6.79619C0.275347 6.22407 -0.00183615 5.50255 9.15496e-06 4.74744C0.000482535 4.55371 0.0572152 4.3643 0.163312 4.20221L2.61786 0.452329ZM9 16H11V13H9V16ZM13 16V12C13 11.4477 12.5523 11 12 11H8C7.44772 11 7 11.4477 7 12V16H5V7.65209C5.22586 7.54509 5.43877 7.41487 5.63464 7.26384C5.7629 7.36313 5.89863 7.45352 6.04072 7.53428C6.58036 7.84096 7.19572 8 7.81832 8C8.44092 8 9.05628 7.84096 9.59592 7.53428C9.73727 7.45394 9.87233 7.36407 10 7.26539C10.1277 7.36407 10.2627 7.45394 10.4041 7.53428C10.9437 7.84096 11.5591 8 12.1817 8C12.8043 8 13.4196 7.84096 13.9593 7.53428C14.1014 7.45352 14.2371 7.36313 14.3654 7.26384C14.5612 7.41487 14.7741 7.54509 15 7.65209V16H13ZM3.99516 2L2.02945 5.00308C2.07056 5.17484 2.1549 5.34228 2.28373 5.49207C2.47647 5.71617 2.75916 5.88781 3.09478 5.96094C3.43072 6.03413 3.78291 6.00019 4.08973 5.86899C4.39581 5.73811 4.62578 5.5245 4.75917 5.28047C4.93487 4.95903 5.27226 4.75939 5.63858 4.7601C6.0049 4.76081 6.34151 4.96176 6.51596 5.28387C6.62424 5.4838 6.79813 5.6643 7.02893 5.79547C7.2602 5.9269 7.53387 6 7.81832 6C8.10277 6 8.37644 5.9269 8.60771 5.79547C8.83851 5.6643 9.0124 5.4838 9.12068 5.28387C9.29546 4.96115 9.63299 4.7601 10 4.7601C10.367 4.7601 10.7045 4.96115 10.8793 5.28387C10.9876 5.4838 11.1615 5.6643 11.3923 5.79547C11.6236 5.9269 11.8972 6 12.1817 6C12.4661 6 12.7398 5.9269 12.9711 5.79547C13.2019 5.6643 13.3758 5.4838 13.484 5.28387C13.6585 4.96176 13.9951 4.76081 14.3614 4.7601C14.7277 4.75939 15.0651 4.95903 15.2408 5.28047C15.3742 5.5245 15.6042 5.73811 15.9103 5.86899C16.2171 6.00019 16.5693 6.03413 16.9052 5.96094C17.2408 5.88781 17.5235 5.71618 17.7163 5.49207C17.8451 5.34228 17.9294 5.17484 17.9705 5.00308L16.0048 2H3.99516Z" fill="#808089"/>
</svg>
